<svg width="24" height="25" viewBox="0 0 24 25" fill="none" xmlns="http://www.w3.org/2000/svg">
<path d="M17 12.7656C17 12.5312 16.7656 12.2969 16.5312 12.2969H12.7031V8.46875C12.7031 8.23438 12.4688 8 12.2344 8H11.7656C11.4922 8 11.2969 8.23438 11.2969 8.46875V12.2969H7.46875C7.19531 12.2969 7 12.5312 7 12.7656V13.2344C7 13.5078 7.19531 13.7031 7.46875 13.7031H11.2969V17.5312C11.2969 17.8047 11.4922 18 11.7656 18H12.2344C12.4688 18 12.7031 17.8047 12.7031 17.5312V13.7031H16.5312C16.7656 13.7031 17 13.5078 17 13.2344V12.7656ZM21.6875 13C21.6875 7.64844 17.3516 3.3125 12 3.3125C6.64844 3.3125 2.3125 7.64844 2.3125 13C2.3125 18.3516 6.64844 22.6875 12 22.6875C17.3516 22.6875 21.6875 18.3516 21.6875 13ZM20.4375 13C20.4375 17.6484 16.6484 21.4375 12 21.4375C7.35156 21.4375 3.5625 17.6875 3.5625 13C3.5625 8.39062 7.3125 4.5625 12 4.5625C16.6094 4.5625 20.4375 8.35156 20.4375 13Z" fill="#016D38"/>
</svg>
