<svg width="64" height="64" viewBox="0 0 64 64" fill="none" xmlns="http://www.w3.org/2000/svg">
<path fill-rule="evenodd" clip-rule="evenodd" d="M24.2759 25C24.8282 25 25.2759 25.4477 25.2759 26V51C25.2759 51.5523 24.8282 52 24.2759 52C23.7236 52 23.2759 51.5523 23.2759 51V26C23.2759 25.4477 23.7236 25 24.2759 25ZM32 25C32.5523 25 33 25.4477 33 26V51C33 51.5523 32.5523 52 32 52C31.4477 52 31 51.5523 31 51V26C31 25.4477 31.4477 25 32 25ZM39.7242 25C40.2764 25 40.7242 25.4477 40.7242 26V51C40.7242 51.5523 40.2764 52 39.7242 52C39.1719 52 38.7242 51.5523 38.7242 51V26C38.7242 25.4477 39.1719 25 39.7242 25Z" fill="black"/>
<path fill-rule="evenodd" clip-rule="evenodd" d="M19.3322 4.71594C19.6789 3.94259 20.3601 3 21.4757 3H42.524C43.6734 3 44.2868 3.95816 44.6052 4.81149C45.2192 6.11547 45.1795 7.41552 45.1675 7.8105C45.1663 7.8494 45.1654 7.87952 45.1654 7.9V15C45.1654 15.5523 44.7177 16 44.1654 16C43.6131 16 43.1654 15.5523 43.1654 15V7.9C43.1654 7.85992 43.1663 7.81305 43.1673 7.76013C43.1756 7.32578 43.1918 6.48356 42.7821 5.63475C42.7672 5.60401 42.754 5.57253 42.7424 5.54044C42.626 5.21902 42.5201 5.06329 42.4614 5H21.521C21.4865 5.02084 21.342 5.12182 21.1572 5.53406C20.9148 6.07484 20.7378 6.90314 20.7378 7.9V15C20.7378 15.5523 20.2901 16 19.7378 16C19.1855 16 18.7378 15.5523 18.7378 15V7.9C18.7378 6.69686 18.947 5.57516 19.3322 4.71594Z" fill="#FFDC5D"/>
<path fill-rule="evenodd" clip-rule="evenodd" d="M3 15C3 14.4477 3.44772 14 4 14H60C60.5523 14 61 14.4477 61 15C61 15.5523 60.5523 16 60 16H4C3.44772 16 3 15.5523 3 15ZM11.6986 19.0003C12.2507 18.9862 12.7097 19.4224 12.7238 19.9745L12.9877 30.3036C12.988 30.3144 12.9881 30.3252 12.988 30.336L12.8121 55.7468C12.8121 55.7479 12.8121 55.749 12.8121 55.7501C12.8127 56.6293 13.0695 57.4099 13.4446 57.945C13.8213 58.4823 14.2508 58.6962 14.627 58.6962H14.6357V58.6962L49.2851 59C49.2862 59 49.2874 59 49.2886 59C49.6106 58.9985 50.0436 58.7943 50.4403 58.2405C50.8294 57.6972 51.0999 56.9157 51.0999 56.0506L51.0999 56.0457L51.2759 20.2989C51.2786 19.7466 51.7285 19.3011 52.2808 19.3038C52.8331 19.3065 53.2786 19.7564 53.2759 20.3087L53.0999 56.0506C53.0999 56.0515 53.0999 56.0524 53.0999 56.0534C53.0994 57.3139 52.7102 58.506 52.0662 59.4051C51.4308 60.2923 50.458 61 49.2851 61H49.2763V61L14.627 60.6962C14.6254 60.6962 14.6237 60.6962 14.6221 60.6962C13.4171 60.6943 12.441 59.9976 11.8069 59.093C11.1709 58.1857 10.8121 56.9929 10.8121 55.7468L10.8121 55.7399L10.9879 30.3384L10.7245 20.0255C10.7104 19.4734 11.1465 19.0144 11.6986 19.0003Z" fill="#016D38"/>
</svg>
