<svg width="18" height="18" viewBox="0 0 18 18" fill="none" xmlns="http://www.w3.org/2000/svg">
<path d="M16.4062 3.03125L15.2188 1.84375C14.4375 1.0625 13.1875 1.0625 12.4062 1.84375L1.375 12.875L1 16.4375C0.9375 16.9062 1.34375 17.3125 1.8125 17.25L5.375 16.875L16.4062 5.84375C17.1875 5.0625 17.1875 3.8125 16.4062 3.03125ZM13.4375 7.40625L6.4375 14.4062V13.3125H4.9375V11.8125H3.84375L10.8438 4.8125L13.4375 7.40625ZM4.9375 15.9062L3.09375 16.125L2.125 15.1562L2.34375 13.3125L2.96875 12.6875H4.0625V14.1875H5.5625V15.2812L4.9375 15.9062ZM15.6875 5.15625L14.125 6.71875L11.5312 4.125L13.0938 2.5625C13.5 2.15625 14.125 2.15625 14.5312 2.5625L15.6875 3.71875C16.0938 4.125 16.0938 4.75 15.6875 5.15625Z" fill="#016D38"/>
</svg>
