<svg width="18" height="18" viewBox="0 0 18 18" fill="none" xmlns="http://www.w3.org/2000/svg">
<path d="M9 10.25C10.0938 10.25 11 9.375 11 8.25C11 7.15625 10.0938 6.25 9 6.25C8.96875 6.25 8.9375 6.28125 8.90625 6.28125C8.9375 6.4375 8.96875 6.59375 8.96875 6.78125C8.96875 7.59375 8.3125 8.25 7.5 8.25C7.3125 8.25 7.15625 8.21875 7 8.1875C7 8.21875 7 8.25 7 8.25C7 9.375 7.875 10.25 9 10.25ZM17.875 8.8125C16.1875 5.5 12.8125 3.25 9 3.25C5.15625 3.25 1.78125 5.5 0.09375 8.8125C0.03125 8.9375 0 9.09375 0 9.25C0 9.4375 0.03125 9.59375 0.09375 9.71875C1.78125 13.0312 5.15625 15.25 9 15.25C12.8125 15.25 16.1875 13.0312 17.875 9.71875C17.9375 9.59375 17.9688 9.4375 17.9688 9.28125C17.9688 9.09375 17.9375 8.9375 17.875 8.8125ZM9 4.25C11.1875 4.25 13 6.0625 13 8.25C13 10.4688 11.1875 12.25 9 12.25C6.78125 12.25 5 10.4688 5 8.25C5 6.0625 6.78125 4.28125 9 4.25ZM9 14.25C5.625 14.25 2.5625 12.3438 1 9.25C1.875 7.53125 3.28125 6.09375 5.03125 5.21875C4.375 6.0625 4 7.125 4 8.25C4 11.0312 6.21875 13.25 9 13.25C11.75 13.25 14 11.0312 14 8.25C14 7.125 13.5938 6.0625 12.9375 5.21875C14.6875 6.09375 16.0938 7.53125 17 9.25C15.4062 12.3438 12.3438 14.25 9 14.25Z" fill="#016D38"/>
</svg>
