<svg width="18" height="18" viewBox="0 0 18 18" fill="none" xmlns="http://www.w3.org/2000/svg">
<path d="M15.75 3.25H12.5L11.4375 1.875C11.1562 1.5 10.7188 1.25 10.25 1.25H7.75C7.25 1.25 6.8125 1.5 6.53125 1.875L5.5 3.25H2.25C2.09375 3.25 2 3.375 2 3.5V4C2 4.15625 2.09375 4.25 2.25 4.25H2.8125L3.875 15.9062C3.9375 16.6562 4.5625 17.25 5.34375 17.25H12.625C13.4062 17.25 14.0312 16.6562 14.0938 15.9062L15.1562 4.25H15.75C15.875 4.25 16 4.15625 16 4V3.5C16 3.375 15.875 3.25 15.75 3.25ZM7.34375 2.46875C7.4375 2.34375 7.5625 2.28125 7.75 2.25H10.25C10.4062 2.28125 10.5312 2.34375 10.625 2.46875L11.25 3.25H6.75L7.34375 2.46875ZM13.125 15.8125C13.0938 16.0625 12.875 16.25 12.625 16.25H5.34375C5.09375 16.25 4.875 16.0625 4.875 15.8125L3.84375 4.25H14.1562L13.125 15.8125Z" fill="#016D38"/>
</svg>
